<?xml version="1.0" encoding="UTF-8"?>
<!DOCTYPE svg PUBLIC "-//W3C//DTD SVG 1.1//EN" "http://www.w3.org/Graphics/SVG/1.1/DTD/svg11.dtd">
<!-- Creator: CorelDRAW 2021 (64-Bit) -->
<svg xmlns="http://www.w3.org/2000/svg" xml:space="preserve" width="4.21871in" height="1.83305in" version="1.1" style="shape-rendering:geometricPrecision; text-rendering:geometricPrecision; image-rendering:optimizeQuality; fill-rule:evenodd; clip-rule:evenodd"
viewBox="0 0 3259.58 1416.31"
 xmlns:xlink="http://www.w3.org/1999/xlink"
 xmlns:xodm="http://www.corel.com/coreldraw/odm/2003">
 <defs>
  <style type="text/css">
   <![CDATA[
    .str0 {stroke:black;stroke-width:5.37;stroke-linecap:round;stroke-linejoin:round;stroke-miterlimit:2.61313}
    .fil1 {fill:black}
    .fil0 {fill:url(#id0)}
   ]]>
  </style>
  <linearGradient id="id0" gradientUnits="userSpaceOnUse" x1="-711.74" y1="708.14" x2="3259.58" y2="708.14">
   <stop offset="0" style="stop-opacity:1; stop-color:#FF6600"/>
   <stop offset="0.580392" style="stop-opacity:1; stop-color:#FAEABE"/>
   <stop offset="1" style="stop-opacity:1; stop-color:#FF6600"/>
  </linearGradient>
 </defs>
 <g id="Layer_x0020_1">
  <metadata id="CorelCorpID_0Corel-Layer"/>
  <g id="_1730681651344">
   <path class="fil0" d="M708.15 0l1843.28 0c389.49,0 708.15,318.67 708.15,708.15l0 0c0,389.49 -318.67,708.15 -708.15,708.15l-1843.28 0c-389.49,0 -708.15,-318.67 -708.15,-708.15l0 -0c0,-389.49 318.67,-708.15 708.15,-708.15zm455.62 1221.64l-341.53 -613.02 -70.36 -132 0 426.03 0 318.99 -217.07 0 0 -1026.98 292.74 0 348.83 616.78 61.4 120.19 0 -453.4 0 -283.57 217.06 0 0 1026.98 -291.08 0z"/>
   <path class="fil1 str0" d="M1794.44 61.47l756.99 0c355.68,0 646.69,291.01 646.69,646.69l0 0c0,355.68 -291.01,646.69 -646.69,646.69l-739.13 0c-97.81,0 -182.52,-87.58 -182.52,-217.86l0 -875.33c0,-78.33 46.08,-194.23 164.65,-200.19zm943.44 1119.94c-56.42,18.51 -110.86,32.19 -163.63,41.32 -53.1,8.85 -107.87,13.41 -164.96,13.41 -91.27,0 -172.26,-11 -242.29,-32.73 -70.36,-21.73 -129.77,-53.92 -177.9,-97.12 -48.46,-42.92 -84.97,-96.31 -109.86,-159.9 -24.9,-63.58 -37.51,-137.63 -37.51,-222.14 0,-86.38 13.61,-163.38 40.83,-230.72 27.22,-67.34 66.05,-124.21 116.5,-170.63 50.78,-46.41 112.19,-81.82 184.21,-106.24 72.36,-24.41 153.67,-36.48 243.62,-36.48 29.21,0 56.42,0.54 81.98,1.61 25.89,1.07 50.78,2.95 75.34,5.9 24.89,2.95 49.78,6.71 75.01,11.27 25.22,4.83 51.45,11 78.66,18.24l0 191.55c-55.1,-20.93 -107.54,-35.68 -157.32,-44.54 -49.79,-8.85 -95.26,-13.41 -136.08,-13.41 -60.07,0 -111.52,8.85 -154.34,26.29 -42.82,17.71 -77.99,42.12 -105.54,74.04 -27.22,31.66 -47.46,69.22 -60.41,113.21 -12.94,43.73 -19.58,91.75 -19.58,144.07 0,55.53 6.64,105.17 19.91,149.16 13.28,43.73 33.86,80.75 61.74,111.07 27.88,30.58 63.39,53.65 106.87,69.75 43.15,15.83 94.93,23.88 154.34,23.88 21.24,0 44.48,-1.61 69.37,-5.1 24.89,-3.49 50.12,-7.78 75.68,-13.41 25.89,-5.37 51.11,-12.07 76,-19.58 24.9,-7.51 48.13,-15.29 69.37,-23.07l0 180.29z"/>
  </g>
 </g>
</svg>
